<?xml version="1.0" encoding="utf-8"?>
<!-- Generator: Adobe Illustrator 19.0.0, SVG Export Plug-In . SVG Version: 6.00 Build 0)  -->
<svg version="1.1" id="Layer_1" xmlns="http://www.w3.org/2000/svg" xmlns:xlink="http://www.w3.org/1999/xlink" x="0px" y="0px"
	 viewBox="0 0 317.3 317.3" style="enable-background:new 0 0 317.3 317.3;" xml:space="preserve">
<style type="text/css">
	.st0{fill:none;}
</style>
<g>
	<path class="st0" d="M158.7,15C78.7,15,14.5,78.9,15,159.7c0.4,78.9,63.6,142.7,143.7,142.7c80.2,0,142.9-63.9,143.9-142.9
		C302.2,78.8,238.6,15,158.7,15z M158.6,245.3c-6,0-11-5-11-11c0-6.1,5.1-11.2,11.1-11.2c6.1,0,11.1,5.2,11,11.3
		C169.7,240.4,164.6,245.3,158.6,245.3z M193.6,160.1c-6,6.4-12.4,12.3-18.5,18.6c-5.9,6-9.3,13-8.9,21.7c0.3,5.7-2.9,9.1-7.7,8.9
		c-3.4-0.1-6.4-2.3-6.9-5.7c-1.2-7.1,0.1-13.9,2.8-20.5c3.6-8.6,9.8-15.2,16.4-21.5c5.6-5.4,11.4-10.4,16.2-16.6
		c15.8-20.6,5.5-52.3-21.8-57.5c-20.5-3.9-40.5,11.2-41.9,32c-0.1,1.2-0.3,2.5-0.4,3.7c-0.3,4-3.6,7.1-7.4,7c-4-0.1-7.3-3.3-7.4-7.3
		c-0.2-10.2,2.6-19.7,8.3-28.1C126.5,80,140.7,72.5,154.9,72c29,0,50.7,19,53.9,43.9C211.1,133.2,205.2,147.7,193.6,160.1z"/>
	<path d="M160.8,0C71.8-1.2,0,71.1,0,158.3c-0.2,87.8,70.9,158.3,157.2,159c88.2,0.7,159.8-70.6,160.1-158.1
		C317.6,71.7,246.9,1.1,160.8,0z M158.6,302.4c-80.1,0-143.2-63.8-143.7-142.7C14.5,78.9,78.7,15,158.7,15
		c79.9,0,143.5,63.8,143.8,144.5C301.5,238.4,238.9,302.4,158.6,302.4z"/>
	<path d="M154.9,72c-14.2,0.5-28.5,8-38.6,22.9c-5.7,8.4-8.5,17.8-8.3,28.1c0.1,4.1,3.4,7.3,7.4,7.3c3.8,0.1,7-3.1,7.4-7
		c0.1-1.2,0.3-2.5,0.4-3.7c1.5-20.8,21.4-35.9,41.9-32c27.4,5.2,37.6,36.9,21.8,57.5c-4.8,6.2-10.6,11.3-16.2,16.6
		c-6.6,6.3-12.8,12.9-16.4,21.5c-2.7,6.6-4,13.4-2.8,20.5c0.6,3.4,3.5,5.6,6.9,5.7c4.8,0.1,8.1-3.2,7.7-8.9
		c-0.5-8.8,3-15.7,8.9-21.7c6.1-6.3,12.6-12.2,18.5-18.6c11.6-12.4,17.6-26.9,15.3-44.2C205.6,91,183.9,72,154.9,72z"/>
	<path d="M158.7,223.2c-6,0-11.1,5.1-11.1,11.2c0,5.9,5,10.9,11,11c6,0,11.1-4.9,11.1-10.9C169.8,228.4,164.7,223.2,158.7,223.2z"/>
</g>
</svg>